<svg xmlns="http://www.w3.org/2000/svg" viewBox="0 0 24 24" fill="none">
  <path d="M8 10.5c-1.7 0-2.8 1-3.2 2.2-.7.2-2.3.6-2.3 2.3 0 1.5 1.2 2.5 2.8 2.5h7c2 0 3.2-1 3.2-2.5 0-.8-.3-1.4-.8-1.8" stroke="currentColor" stroke-width="1.5" stroke-linecap="round" stroke-linejoin="round"/>
  <path d="M14 7c1.5 0 2.8-1.2 2.8-2.8S15.5 1.4 14 1.4c-1.1 0-2 .7-2.4 1.6-.2-.1-.5-.1-.8-.1-1.7 0-3 1.3-3 3 0 .2 0 .4.1.6-.4.6-.7 1.3-.7 2.1 0 2.2 1.8 4 4 4" stroke="currentColor" stroke-width="1.5" stroke-linecap="round" stroke-linejoin="round"/>
</svg>
