<svg role="img" viewBox="0 0 24 24" xmlns="http://www.w3.org/2000/svg"><title>GitHub</title><path d="M12 .297a12 12 0 0 0-3.793 23.385c.6.111.793-.261.793-.577v-2.234c-3.225.701-3.906-1.554-3.906-1.554-.527-1.338-1.287-1.694-1.287-1.694-1.053-.72.08-.705.08-.705 1.164.082 1.777 1.195 1.777 1.195 1.035 1.773 2.717 1.261 3.379.964.105-.749.405-1.261.737-1.551-2.574-.293-5.282-1.287-5.282-5.73 0-1.266.453-2.301 1.194-3.112-.12-.292-.517-1.468.113-3.06 0 0 .975-.312 3.195 1.189a11.1 11.1 0 0 1 5.818 0c2.22-1.501 3.195-1.189 3.195-1.189.63 1.592.233 2.768.114 3.06.742.811 1.193 1.846 1.193 3.112 0 4.454-2.712 5.434-5.293 5.721.417.359.788 1.096.788 2.209v3.274c0 .319.192.694.801.576A12.001 12.001 0 0 0 12 .297"/></svg>
