<svg xmlns="http://www.w3.org/2000/svg" viewBox="0 0 24 24" fill="none">
  <path d="M9 18.5c0 1.1 6 1.1 6 0" stroke="currentColor" stroke-width="1.6" stroke-linecap="round"/>
  <path d="M8 16.2c0 2.4 8 2.4 8 0" stroke="currentColor" stroke-width="1.6" stroke-linecap="round"/>
  <path d="M9 8.5c1.8 1-.8 2 .6 3.2 1 .8 3 .5 4.4-.5" stroke="currentColor" stroke-width="1.6" stroke-linecap="round"/>
  <path d="M10 20h5.7a2.3 2.3 0 0 0 2.3-2.3V17H8v.7A2.3 2.3 0 0 0 10.3 20H10Z" fill="currentColor" opacity=".22"/>
  <path d="M14.5 4c1.7 1.3-1 2 .1 3.5m-2.4-2.8c1.4 1.1-.8 1.8.1 3" stroke="currentColor" stroke-width="1.6" stroke-linecap="round"/>
</svg>