<svg xmlns="http://www.w3.org/2000/svg" viewBox="0 0 24 24" fill="none">
  <rect x="3" y="3" width="18" height="18" rx="2.5" fill="currentColor" opacity=".2"/>
  <path d="M8.2 8.4h2.1v7c0 2.2-1 3.2-3 3.2-.7 0-1.4-.2-2-.5l.4-1.8c.4.2.8.3 1.2.3.8 0 1.3-.4 1.3-1.6V8.4Zm5.2 7.3c.6.3 1.5.6 2.4.6 1 0 1.6-.4 1.6-1 0-.5-.5-.9-1.7-1.3-1.7-.6-2.9-1.5-2.9-3 0-1.8 1.5-3.1 3.9-3.1 1.1 0 1.9.2 2.4.5l-.5 1.8c-.4-.2-1-.5-2-.5s-1.4.4-1.4.9c0 .6.5.8 1.9 1.3 1.8.6 2.7 1.5 2.7 3 0 1.7-1.3 3.2-4.2 3.2-1.2 0-2.3-.3-2.9-.6l.7-1.8Z" fill="currentColor"/>
</svg>