<svg xmlns="http://www.w3.org/2000/svg" viewBox="0 0 24 24" fill="none">
  <path d="M12.2 3.5c-4.8 0-4.5 2.1-4.5 2.1v2.2h4.6v.7H6c-2.4 0-4.5 1.4-4.5 4.2 0 2.8 1.8 4.1 4.5 4.1h2.7v-3.7c0-2.7 2.3-5 5.1-5h4.5V5.6s.7-2.1-3.9-2.1h-2.2Zm-2.5 1.3a.9.9 0 1 1 0 1.8.9.9 0 0 1 0-1.8Z" fill="currentColor"/>
  <path d="M11.8 20.5c4.8 0 4.5-2.1 4.5-2.1v-2.2h-4.6v-.7H18c2.4 0 4.5-1.4 4.5-4.2 0-2.8-1.8-4.1-4.5-4.1h-2.7v3.7c0 2.7-2.3 5-5.1 5H5.7v2.5s-.7 2.1 3.9 2.1h2.2Zm2.5-1.3a.9.9 0 1 1 0-1.8.9.9 0 0 1 0 1.8Z" fill="currentColor" opacity=".9"/>
</svg>