<svg xmlns="http://www.w3.org/2000/svg" viewBox="0 0 24 24" fill="none">
  <path d="m12 2 1 .8 1.3-.1.7 1.1 1.3.4.2 1.3 1.1.7-.1 1.3.8 1-.8 1 .1 1.3-1.1.7-.2 1.3-1.3.4-.7 1.1-1.3-.1-1 .8-1-.8-1.3.1-.7-1.1-1.3-.4-.2-1.3-1.1-.7.1-1.3-.8-1 .8-1-.1-1.3 1.1-.7.2-1.3 1.3-.4.7-1.1 1.3.1 1-.8Z" stroke="currentColor" stroke-width="1.6" stroke-linejoin="round"/>
  <circle cx="12" cy="12" r="4.5" stroke="currentColor" stroke-width="1.6"/>
  <path d="M10 9.2h2.6a2.1 2.1 0 1 1 0 4.2H10Zm0 0v5.6m2.4-2.4 2 2.4" stroke="currentColor" stroke-width="1.6" stroke-linecap="round" stroke-linejoin="round"/>
</svg>