<svg xmlns="http://www.w3.org/2000/svg" viewBox="0 0 24 24" fill="none">
  <path d="M6 14.8c2.2-4 5.9-6.1 11.2-6.2 1.2 0 2.2.2 3.1.5-1.5-2.5-4.2-4-7.4-4C8.4 5.1 5 8.7 5 13.2c0 .7.1 1.1.3 1.6.2.5.4.6.7 0Z" fill="currentColor" opacity=".5"/>
  <path d="M4.6 16.2c1.8-2.8 4.6-4.3 8.7-4.4 3.2-.1 5.8.6 7.8 2.1-1.2 2.8-4 5-8.2 5-3.7 0-6.8-1.1-8.3-2.7Z" fill="currentColor" opacity=".8"/>
  <path d="M7.1 18.7c1.1-1.4 3.2-2.1 6.2-2.2 2.2-.1 4.1.2 5.7.8-1.3 1.2-3.4 2-5.9 2-2.4 0-4.4-.2-6-.6Z" fill="currentColor"/>
</svg>